<svg width="200" height="200" viewBox="0 0 200 200" fill="none" xmlns="http://www.w3.org/2000/svg">
  <defs>
    <linearGradient id="bubble_blue" x1="100" y1="20" x2="100" y2="180" gradientUnits="userSpaceOnUse">
      <stop stop-color="#3FAAFE"/>
      <stop offset="1" stop-color="#1E6DFE"/>
    </linearGradient>
    
    <linearGradient id="arrow_blocks_green" x1="100" y1="60" x2="100" y2="140" gradientUnits="userSpaceOnUse">
      <stop stop-color="#29F286"/>
      <stop offset="1" stop-color="#1E6DFE"/>
    </linearGradient>
  </defs>

  <path d="M100 20C55.8172 20 20 55.8172 20 100C20 144.183 55.8172 180 100 180C144.183 180 180 144.183 180 100C180 55.8172 144.183 20 100 20ZM100 160C66.8629 160 40 133.137 40 100C40 66.8629 66.8629 40 100 40C133.137 40 160 66.8629 160 100C160 133.137 133.137 160 100 160Z" fill="url(#bubble_blue)"/>

  <g id="flechaBloquesVerdes">
    <rect x="90" y="60" width="20" height="40" fill="url(#arrow_blocks_green)"/> <path d="M70 100L100 140L130 100H70Z" fill="url(#arrow_blocks_green)"/> </g>
</svg>
